<?xml version="1.0" standalone="no"?>
<!DOCTYPE svg PUBLIC "-//W3C//DTD SVG 20010904//EN"
 "http://www.w3.org/TR/2001/REC-SVG-20010904/DTD/svg10.dtd">
<svg version="1.0" xmlns="http://www.w3.org/2000/svg"
 width="1024.000000pt" height="1024.000000pt" viewBox="0 0 1024.000000 1024.000000"
 preserveAspectRatio="xMidYMid meet">
<metadata>
Created by potrace 1.14, written by Peter Selinger 2001-2017
</metadata>
<g transform="translate(0.000000,1024.000000) scale(0.100000,-0.100000)"
fill="#000000" stroke="none">
<path d="M1644 8133 c-80 -27 -77 -22 -402 -678 -49 -99 -95 -191 -102 -205
-8 -14 -15 -27 -15 -30 0 -3 -65 -134 -143 -292 -78 -158 -142 -291 -142 -297
0 -6 -4 -11 -10 -11 -11 0 -26 -71 -23 -109 6 -75 61 -148 131 -175 37 -14
159 -51 202 -61 21 -4 431 -121 510 -144 54 -17 112 -33 165 -47 64 -17 277
-77 300 -85 17 -5 143 -41 280 -80 414 -116 636 -179 705 -199 120 -35 285
-81 339 -96 30 -8 93 -26 141 -39 131 -38 175 -40 226 -10 39 23 95 95 152
197 11 18 95 159 189 313 93 154 182 300 197 325 15 25 31 52 36 60 40 62 160
263 160 266 0 3 18 32 40 64 22 32 40 61 40 63 0 3 38 67 84 143 260 429 426
707 424 709 -2 2 -30 6 -63 10 -33 4 -73 8 -90 10 -16 3 -54 7 -83 10 -29 4
-62 8 -74 10 -11 3 -46 7 -77 11 -31 3 -69 8 -86 10 -16 2 -50 6 -75 9 -25 3
-58 7 -75 10 -16 2 -68 9 -115 15 -47 6 -96 13 -110 15 -14 2 -50 7 -80 10
-30 3 -66 8 -80 10 -14 2 -50 7 -80 10 -30 3 -68 8 -85 10 -62 8 -131 17 -160
20 -16 2 -43 6 -58 9 -15 3 -58 8 -95 12 -37 3 -76 8 -87 10 -11 2 -40 6 -65
9 -25 3 -76 10 -115 15 -85 11 -137 18 -190 25 -22 2 -56 6 -75 9 -19 2 -57 7
-85 10 -27 4 -63 8 -80 10 -160 21 -367 48 -395 52 -76 9 -136 17 -155 20 -11
2 -47 6 -79 10 -33 3 -62 7 -65 8 -3 2 -37 7 -76 10 -38 4 -81 9 -95 11 -73
12 -348 44 -370 43 -14 -1 -44 -7 -66 -15z"/>
<path d="M8410 8135 c-52 -8 -120 -17 -150 -20 -66 -8 -102 -12 -230 -30 -19
-3 -55 -8 -80 -10 -25 -3 -99 -12 -165 -21 -150 -19 -168 -22 -230 -28 -27 -4
-59 -8 -70 -10 -11 -2 -49 -7 -85 -11 -36 -4 -72 -8 -80 -10 -8 -1 -42 -6 -75
-9 -33 -4 -67 -9 -75 -11 -8 -2 -40 -6 -70 -10 -30 -3 -70 -8 -88 -10 -144
-19 -194 -25 -242 -31 -60 -7 -69 -8 -150 -19 -30 -4 -66 -9 -80 -10 -85 -10
-143 -17 -158 -20 -9 -1 -46 -6 -82 -10 -36 -4 -67 -8 -70 -10 -3 -2 -39 -6
-80 -10 -41 -4 -84 -9 -95 -11 -21 -4 -63 -10 -145 -20 -30 -4 -66 -8 -80 -10
-14 -2 -49 -6 -78 -9 -29 -4 -61 -8 -71 -10 -23 -4 -115 -16 -161 -20 -32 -4
-80 -10 -155 -20 -78 -11 -201 -27 -212 -28 -19 -1 -16 -17 11 -56 20 -30 200
-327 557 -918 41 -67 86 -142 101 -165 15 -24 33 -54 40 -68 7 -14 15 -27 18
-30 3 -3 12 -17 20 -33 8 -15 82 -136 163 -270 82 -133 154 -251 160 -262 7
-10 23 -37 37 -60 37 -60 42 -69 79 -132 76 -131 129 -173 211 -167 50 3 54 4
160 34 179 52 1173 334 1250 355 122 34 304 85 550 155 118 34 222 63 230 65
8 2 15 4 15 5 0 1 8 3 17 5 10 2 48 12 85 23 37 12 136 39 218 62 178 50 255
74 286 90 59 32 105 122 97 193 -5 42 -30 94 -487 1019 -110 224 -201 411
-201 416 0 5 -7 15 -15 22 -8 7 -13 15 -10 19 5 10 -74 95 -102 110 -35 18
-131 21 -233 6z"/>
<path d="M4990 6639 c-74 -127 -141 -237 -147 -244 -7 -8 -13 -16 -13 -19 0
-3 -121 -208 -270 -457 -148 -248 -270 -453 -270 -455 0 -2 -17 -28 -37 -57
-103 -147 -226 -231 -398 -272 -48 -11 -207 -15 -250 -5 -22 5 -53 11 -70 14
-16 3 -41 10 -55 15 -14 5 -45 14 -70 21 -25 7 -56 16 -70 21 -14 5 -34 11
-45 13 -11 2 -60 16 -110 31 -49 14 -94 28 -100 29 -5 1 -37 10 -70 19 -33 10
-85 24 -115 33 -74 21 -133 38 -280 80 -69 20 -150 42 -180 50 -30 8 -68 19
-85 24 -35 12 -374 109 -401 115 -11 3 -50 14 -89 25 -38 12 -77 23 -85 25 -8
2 -31 9 -50 14 -19 6 -39 11 -45 11 -7 0 -10 -406 -10 -1232 1 -1179 2 -1236
20 -1293 39 -125 154 -244 270 -281 55 -18 156 -45 179 -50 16 -3 33 -7 37
-10 5 -2 46 -13 91 -24 46 -10 103 -24 128 -30 45 -12 65 -16 97 -24 10 -2 56
-14 103 -26 47 -12 95 -24 107 -26 12 -2 34 -9 48 -14 14 -5 25 -7 25 -5 0 2
12 0 28 -6 15 -6 63 -19 107 -29 44 -10 118 -28 165 -40 47 -12 92 -23 100
-25 8 -2 116 -29 240 -60 124 -31 232 -58 240 -60 8 -2 35 -8 60 -15 25 -7 52
-14 60 -15 8 -2 267 -66 575 -143 638 -160 656 -164 748 -166 95 -3 162 6 296
40 36 9 72 17 80 19 46 10 473 117 516 129 28 8 93 24 145 36 52 12 115 28
140 36 25 7 56 15 70 18 14 2 32 7 40 10 8 3 26 7 40 10 14 2 124 29 245 59
306 77 1026 256 1050 262 11 2 101 24 200 50 99 25 192 47 207 50 15 3 38 9
52 15 15 5 26 7 26 5 0 -9 136 46 175 72 44 28 135 118 135 134 0 5 4 9 8 9
10 0 48 92 57 139 5 24 10 2290 6 2459 -1 26 -14 27 -73 8 -74 -24 -970 -281
-1013 -290 -5 -2 -43 -13 -84 -25 -41 -13 -81 -24 -90 -26 -9 -2 -144 -41
-301 -85 -359 -103 -394 -110 -500 -105 -99 5 -127 10 -195 32 -159 52 -275
160 -396 369 -27 47 -95 161 -109 184 -49 79 -180 300 -180 304 0 2 -17 31
-38 63 -22 32 -41 63 -43 68 -5 13 -385 651 -413 692 -11 18 -23 33 -26 33 -3
-1 -66 -104 -140 -231z"/>
</g>
</svg>
